# xmcd
#
# Track frame offsets:
#	150
#	6646
#	25159
#	43109
#	46791
#	60580
#	81426
#	85594
#	101502
#	120923
#	129674
#	147474
#	168475
#	187835
#	204516
#	223454
#	225235
#	245764
#
# Disc length: 3512 seconds
#
# Revision: 1
# Processed by: cddbd v1.5.1PL0 Copyright (c) Steve Scherf et al.
# Submitted via: audiograbber 1.83.01
#
DISCID=f70db612
DTITLE=Natalise - I Came To Play
DYEAR=2005
DGENRE=
TTITLE0=It's My...
TTITLE1=Make It Clap Now
TTITLE2=The Hotness
TTITLE3=Holla
TTITLE4=Get Me Off
TTITLE5=How Far
TTITLE6=Hit Me Up
TTITLE7=I Came To Play
TTITLE8=Watch This
TTITLE9=Tell It Like It Is
TTITLE10=Imagination
TTITLE11=Enough
TTITLE12=I'm Ready
TTITLE13=Something Special
TTITLE14=Girls Like Me
TTITLE15=So Sorry
TTITLE16=Alright
TTITLE17=Make It Clap Now (Remix)
EXTD=
EXTT0=
EXTT1=
EXTT2=
EXTT3=
EXTT4=
EXTT5=
EXTT6=
EXTT7=
EXTT8=
EXTT9=
EXTT10=
EXTT11=
EXTT12=
EXTT13=
EXTT14=
EXTT15=
EXTT16=
EXTT17=
PLAYORDER=
